<svg width="24" height="24" viewBox="0 0 24 24" fill="none" xmlns="http://www.w3.org/2000/svg">
<path d="M21.1406 0.75H2.85938C2.30045 0.751682 1.7649 0.974459 1.36968 1.36968C0.974459 1.7649 0.751682 2.30045 0.75 2.85938V21.1406C0.751682 21.6995 0.974459 22.2351 1.36968 22.6303C1.7649 23.0255 2.30045 23.2483 2.85938 23.25H12.7031V14.1094H10.242V10.5938H12.7031V8.83612C12.7601 6.86512 13.2701 5.11163 16.6121 4.96913H19.383V8.454H17.0404C16.8913 8.44508 16.742 8.46639 16.6014 8.51667C16.4608 8.56695 16.3318 8.64514 16.2222 8.74656C16.1125 8.84797 16.0246 8.97051 15.9635 9.1068C15.9025 9.24309 15.8697 9.39032 15.867 9.53962V10.5938H19.3826L18.7826 14.1094H15.867V23.25H21.1406C21.6995 23.2483 22.2351 23.0255 22.6303 22.6303C23.0255 22.2351 23.2483 21.6995 23.25 21.1406V2.85938C23.2483 2.30045 23.0255 1.7649 22.6303 1.36968C22.2351 0.974459 21.6995 0.751682 21.1406 0.75V0.75Z" stroke="#FF0E0E" stroke-miterlimit="10"/>
</svg>
