<svg width="24" height="24" viewBox="0 0 24 24" fill="none" xmlns="http://www.w3.org/2000/svg">
<path d="M16.5458 0.75H7.45125C5.67639 0.750492 3.97418 1.45487 2.71793 2.70866C1.46169 3.96244 0.753972 5.66327 0.75 7.43813V16.5131C0.754071 18.2879 1.46183 19.9887 2.71806 21.2424C3.9743 22.4961 5.67646 23.2004 7.45125 23.2009H16.5458C18.3211 23.2012 20.0241 22.4972 21.281 21.2433C22.5379 19.9894 23.246 18.2881 23.25 16.5128V7.43775C23.2459 5.66244 22.5378 3.96125 21.2809 2.70746C20.024 1.45368 18.3211 0.749697 16.5458 0.75Z" stroke="#FF0E0E" stroke-miterlimit="10"/>
<path d="M12 6.16881C10.852 6.17103 9.73051 6.51346 8.77712 7.15284C7.82372 7.79222 7.08124 8.69984 6.64349 9.76104C6.20573 10.8222 6.09235 11.9894 6.31766 13.115C6.54297 14.2406 7.09687 15.2742 7.90937 16.0851C8.72187 16.896 9.75651 17.4479 10.8826 17.671C12.0086 17.8942 13.1755 17.7785 14.2359 17.3387C15.2962 16.8989 16.2024 16.1547 16.8399 15.2001C17.4774 14.2454 17.8177 13.1232 17.8177 11.9753C17.8142 10.4344 17.1998 8.95785 16.1092 7.86935C15.0186 6.78085 13.5408 6.1693 12 6.16881V6.16881ZM12 15.5251C11.2986 15.5235 10.6134 15.3141 10.031 14.9233C9.44861 14.5325 8.9951 13.9779 8.72777 13.3294C8.46045 12.681 8.39131 11.9679 8.5291 11.2802C8.66688 10.5925 9.0054 9.96107 9.50189 9.46568C9.99839 8.97029 10.6306 8.63317 11.3186 8.49691C12.0066 8.36065 12.7195 8.43137 13.3674 8.70013C14.0152 8.96889 14.5688 9.42363 14.9583 10.0069C15.3478 10.5902 15.5557 11.2758 15.5557 11.9772C15.5546 12.9192 15.1794 13.8221 14.5126 14.4875C13.8458 15.1528 12.9419 15.5261 12 15.5251ZM19.2236 6.21231C19.2242 6.48826 19.1429 6.75819 18.99 6.98793C18.8371 7.21767 18.6195 7.39689 18.3647 7.50291C18.11 7.60892 17.8295 7.63697 17.5587 7.5835C17.288 7.53002 17.0392 7.39744 16.8439 7.20252C16.6485 7.00759 16.5154 6.7591 16.4614 6.48849C16.4073 6.21788 16.4347 5.93731 16.5402 5.6823C16.6457 5.42729 16.8244 5.2093 17.0538 5.05593C17.2832 4.90255 17.553 4.82068 17.829 4.82068C18.0119 4.82043 18.1931 4.85624 18.3623 4.92605C18.5314 4.99586 18.6851 5.09831 18.8146 5.22755C18.9441 5.35678 19.0469 5.51027 19.1171 5.67924C19.1872 5.8482 19.2234 6.02934 19.2236 6.21231Z" stroke="#FF0E0E" stroke-miterlimit="10"/>
</svg>
