<svg width="80" height="80" viewBox="0 0 80 80" fill="none" xmlns="http://www.w3.org/2000/svg">
<g clip-path="url(#clip0)">
<path d="M8.21484 45.9801C8.21484 45.9801 9.72879 42.4277 7.17127 38.7212C4.61119 35.0146 0.742793 34.3668 0.742793 34.3668C0.742793 34.3668 -0.920233 38.5644 1.57302 42.1784C4.06884 45.7899 8.21484 45.9801 8.21484 45.9801Z" fill="#89898B"/>
<path d="M25.881 65.6157C25.881 65.6157 29.3947 63.4025 29.7828 59.0302C30.1632 54.6579 26.6444 51.8278 26.6444 51.8278C26.6444 51.8278 23.6011 54.298 23.2053 58.786C22.812 63.2817 25.881 65.6157 25.881 65.6157Z" fill="#89898B"/>
<path d="M35.1934 72.6536C35.1934 72.6536 37.9231 69.5176 37.0338 65.2199C36.1393 60.9169 31.9547 59.2256 31.9547 59.2256C31.9547 59.2256 29.7519 62.4746 30.6644 66.8829C31.5769 71.2913 35.1934 72.6536 35.1934 72.6536Z" fill="#89898B"/>
<path d="M10.5745 54.9714C10.5745 54.9714 10.9703 51.1389 7.43606 48.35C3.89667 45.5585 0.0102771 46.0803 0.0102771 46.0803C0.0102771 46.0803 -0.347003 50.5811 3.10242 53.2981C6.55442 56.0176 10.5745 54.9714 10.5745 54.9714Z" fill="#89898B"/>
<path d="M15.9337 63.4283C15.9337 63.4283 15.4659 59.5984 11.4022 57.6654C7.3307 55.7298 3.65765 57.1025 3.65765 57.1025C3.65765 57.1025 4.3131 61.5647 8.27403 63.454C12.2452 65.3356 15.9337 63.4283 15.9337 63.4283Z" fill="#89898B"/>
<path d="M16.3424 65.7571C11.8802 65.1479 8.79065 67.5641 8.79065 67.5641C8.79065 67.5641 10.7698 71.6202 15.1189 72.2217C19.4679 72.8129 22.4033 69.88 22.4033 69.88C22.4033 69.88 20.8071 66.3688 16.3424 65.7571Z" fill="#89898B"/>
<path d="M25.1895 72.5354C20.6863 72.466 17.9154 75.2344 17.9154 75.2344C17.9154 75.2344 20.3598 79.0335 24.75 79.1029C29.1428 79.1697 31.7054 75.9053 31.7054 75.9053C31.7054 75.9053 29.698 72.6048 25.1895 72.5354Z" fill="#89898B"/>
<path d="M12.3454 39.1504L10.2377 38.7211C10.1914 38.9499 5.15096 61.2922 38.1621 77.2598L39.0952 75.3243C7.66221 60.1278 12.1681 40.0243 12.3454 39.1504Z" fill="#7D7D7E"/>
<path d="M15.1189 46.4068C15.1189 46.4068 19.0336 45.0367 20.3856 40.8546C21.7402 36.6802 18.9385 33.1381 18.9385 33.1381C18.9385 33.1381 15.4222 34.868 14.0316 39.1555C12.6462 43.4379 15.1189 46.4068 15.1189 46.4068Z" fill="#89898B"/>
<path d="M16.7639 51.0285C15.9517 55.4625 18.7868 58.0766 18.7868 58.0766C18.7868 58.0766 22.4932 56.2028 23.29 51.887C24.0791 47.5635 20.8405 44.4276 20.8405 44.4276C20.8405 44.4276 17.5838 46.5944 16.7639 51.0285Z" fill="#89898B"/>
<path d="M11.2453 36.7393C11.2453 36.7393 14.4788 34.629 14.4043 30.1256C14.3349 25.6222 11.4741 22.9335 11.4741 22.9335C11.4741 22.9335 7.76506 25.4988 7.83446 29.8968C7.90386 34.2871 11.2453 36.7393 11.2453 36.7393Z" fill="#89898B"/>
<path d="M56.7793 36.6417C56.7793 34.0969 56.9233 15.5691 56.9233 15.5691L56.9361 14.0808L55.5481 13.5488C55.3965 13.4948 53.2168 12.6902 49.3073 12.0528L52.2426 1.13351L44.9094 7.09694L40.0823 0.925302V0.899597L40.072 0.909879L40.0617 0.899597V0.925302L35.2294 7.09694L27.8987 1.13351L30.829 12.0425C26.832 12.6825 24.601 13.5051 24.4545 13.5616L23.069 14.0911L23.0819 15.582C23.0819 15.582 23.2233 34.1098 23.2233 36.6545C23.2233 40.4973 28.9654 51.4808 39.9075 51.7919V51.7944C39.9126 51.7944 39.9178 51.7944 39.9229 51.7919C39.982 51.7944 40.0386 51.8073 40.0977 51.8073V51.779C51.0371 51.4628 56.7793 40.4845 56.7793 36.6417ZM39.9049 18.831V18.8413H27.3975V17.9802H40.0951V17.9674H52.5999V18.831H39.9049Z" fill="url(#paint0_linear)"/>
<path d="M71.7877 45.9673C71.7877 45.9673 75.9311 45.7796 78.4295 42.163C80.9253 38.5515 79.2572 34.354 79.2572 34.354C79.2572 34.354 75.3888 35.0018 72.8287 38.7083C70.2712 42.4124 71.7877 45.9673 71.7877 45.9673Z" fill="#9C9697"/>
<path d="M53.3556 51.8201C53.3556 51.8201 49.8393 54.6502 50.2172 59.0199C50.6027 63.3923 54.1216 65.6054 54.1216 65.6054C54.1216 65.6054 57.188 63.2715 56.7973 58.7835C56.3989 54.2903 53.3556 51.8201 53.3556 51.8201Z" fill="#89898B"/>
<path d="M42.9688 65.2095C42.0794 69.5073 44.8092 72.6433 44.8092 72.6433C44.8092 72.6433 48.4205 71.2861 49.3382 66.8752C50.2506 62.4643 48.0478 59.2178 48.0478 59.2178C48.0478 59.2178 43.8607 60.904 42.9688 65.2095Z" fill="#89898B"/>
<path d="M79.9897 46.0674C79.9897 46.0674 76.1033 45.5456 72.5639 48.3371C69.0297 51.1261 69.4229 54.9586 69.4229 54.9586C69.4229 54.9586 73.443 56.0022 76.8924 53.2853C80.3444 50.5683 79.9897 46.0674 79.9897 46.0674Z" fill="#89898B"/>
<path d="M68.6004 57.6525C64.5367 59.5855 64.0663 63.4129 64.0663 63.4129C64.0663 63.4129 67.7599 65.3201 71.7234 63.4411C75.6843 61.557 76.3398 57.087 76.3398 57.087C76.3398 57.087 72.6693 55.7169 68.6004 57.6525Z" fill="#89898B"/>
<path d="M63.6602 65.7468C59.198 66.356 57.5992 69.8698 57.5992 69.8698C57.5992 69.8698 60.5346 72.8079 64.8837 72.2115C69.2327 71.6126 71.2119 67.5513 71.2119 67.5513C71.2119 67.5513 68.1197 65.1351 63.6602 65.7468Z" fill="#89898B"/>
<path d="M48.2971 75.8898C48.2971 75.8898 50.8598 79.1568 55.2525 79.0874C59.6427 79.0206 62.0871 75.2189 62.0871 75.2189C62.0871 75.2189 59.3163 72.4505 54.813 72.5199C50.3046 72.5944 48.2971 75.8898 48.2971 75.8898Z" fill="#89898B"/>
<path d="M69.7674 38.7109L67.6597 39.1401C67.8345 40.0115 71.5384 60.6779 40.9485 75.3937L41.8815 77.3318C74.0522 61.8449 69.8111 38.9371 69.7674 38.7109Z" fill="#7D7D7E"/>
<path d="M64.8837 46.3939C64.8837 46.3939 67.3564 43.4276 65.971 39.1452C64.5804 34.8577 61.0641 33.1252 61.0641 33.1252C61.0641 33.1252 58.2624 36.6673 59.6196 40.8417C60.969 45.0238 64.8837 46.3939 64.8837 46.3939Z" fill="#89898B"/>
<path d="M56.7125 51.8741C57.5093 56.1898 61.2158 58.0637 61.2158 58.0637C61.2158 58.0637 64.0535 55.4444 63.2387 51.0155C62.4213 46.5789 59.1621 44.412 59.1621 44.412C59.1621 44.412 55.9208 47.548 56.7125 51.8741Z" fill="#89898B"/>
<path d="M68.7572 36.729C68.7572 36.729 72.0987 34.2742 72.1681 29.8839C72.2375 25.4885 68.5259 22.9232 68.5259 22.9232C68.5259 22.9232 65.6676 25.6118 65.5957 30.1153C65.5237 34.6187 68.7572 36.729 68.7572 36.729Z" fill="#A7A0A1"/>
<path d="M5.57895 73.6018V75.1858H3.58095V77.3638H1.79895V75.1858H-0.199055V73.6018H1.79895V71.4238H3.58095V73.6018H5.57895Z" fill="#89898B"/>
<path d="M67.8098 6.78005V7.57205H66.5118V8.98005H65.6318V7.57205H64.3338V6.78005H65.6318V5.37205H66.5118V6.78005H67.8098Z" fill="#B1A8A8"/>
<path d="M28.8909 22.9963V23.7883H27.5929V25.1963H26.7129V23.7883H25.4149V22.9963H26.7129V21.5883H27.5929V22.9963H28.8909Z" fill="#B1A8A8"/>
<path d="M77.9055 65.7675V66.6315H76.4895V68.1675H75.5295V66.6315H74.1135V65.7675H75.5295V64.2315H76.4895V65.7675H77.9055Z" fill="#9C9697"/>
</g>
<defs>
<linearGradient id="paint0_linear" x1="50.7463" y1="14.9254" x2="32.8358" y2="57.3134" gradientUnits="userSpaceOnUse">
<stop stop-color="#B1A8A8"/>
<stop offset="1" stop-color="#89898B"/>
</linearGradient>
<clipPath id="clip0">
<rect width="80" height="80" fill="white"/>
</clipPath>
</defs>
</svg>
