<svg width="80" height="80" viewBox="0 0 80 80" fill="none" xmlns="http://www.w3.org/2000/svg">
<path d="M35.9322 32.5424C35.9322 42.2776 28.0403 50.1695 18.3051 50.1695C8.56993 50.1695 0.677979 42.2776 0.677979 32.5424C0.677979 22.8072 8.56993 14.9153 18.3051 14.9153C28.0403 14.9153 35.9322 22.8072 35.9322 32.5424Z" fill="#89898B"/>
<path d="M79.322 42.0339C79.322 57.0114 67.1809 69.1526 52.2034 69.1526C37.2259 69.1526 25.0847 57.0114 25.0847 42.0339C25.0847 27.0564 37.2259 14.9153 52.2034 14.9153C67.1809 14.9153 79.322 27.0564 79.322 42.0339Z" fill="url(#paint0_linear)"/>
<path d="M77.9661 70.5085C77.9661 72.0061 76.7518 73.2204 75.2542 73.2204C73.7566 73.2204 72.5424 72.0061 72.5424 70.5085C72.5424 69.0109 73.7566 67.7966 75.2542 67.7966C76.7518 67.7966 77.9661 69.0109 77.9661 70.5085Z" fill="#89898B"/>
<path d="M38.6441 9.4915C38.6441 11.7379 36.8227 13.5593 34.5763 13.5593C32.3299 13.5593 30.5085 11.7379 30.5085 9.4915C30.5085 7.24508 32.3299 5.42371 34.5763 5.42371C36.8227 5.42371 38.6441 7.24508 38.6441 9.4915Z" fill="#B6ACAC"/>
<path d="M4.44071 35.3635C4.41224 35.0516 3.79386 27.6457 8.17085 22.8535C10.7265 20.192 14.3149 18.7738 18 18.9705V20.8379C15.0809 20.6592 11.5505 22.4151 9.50003 24.5C5.92283 28.4149 6.18299 34.9218 6.19491 34.9874L4.44071 35.3635Z" fill="#E6F1FD"/>
<path d="M73.5 40.4992C70.9834 21.626 54.2281 20.4999 53.5594 20.4999V18.983C53.748 18.983 72.4067 19.23 75.2424 40.4992H73.5Z" fill="#E6F1FD"/>
<path d="M48.1356 66.4407C48.1356 73.9294 42.065 80 34.5763 80C27.0875 80 21.017 73.9294 21.017 66.4407C21.017 58.9519 27.0875 52.8813 34.5763 52.8813C42.065 52.8813 48.1356 58.9519 48.1356 66.4407Z" fill="#89898B"/>
<path d="M9.66 62.818V64.402H7.662V66.58H5.88V64.402H3.882V62.818H5.88V60.64H7.662V62.818H9.66Z" fill="#89898B"/>
<path d="M71.026 10.699V11.491H69.728V12.899H68.848V11.491H67.55V10.699H68.848V9.291H69.728V10.699H71.026Z" fill="#B4AAAA"/>
<path d="M50.026 27.699V28.491H48.728V29.899H47.848V28.491H46.55V27.699H47.848V26.291H48.728V27.699H50.026Z" fill="#CDBFBF"/>
<defs>
<linearGradient id="paint0_linear" x1="52" y1="69" x2="61.5" y2="15" gradientUnits="userSpaceOnUse">
<stop stop-color="#8B8989"/>
<stop offset="1" stop-color="#9B7B7B" stop-opacity="0.29"/>
</linearGradient>
</defs>
</svg>
