<svg width="80" height="80" viewBox="0 0 80 80" fill="none" xmlns="http://www.w3.org/2000/svg">
<path d="M68.75 40.295L66.2163 43.75H68.75V40.295Z" fill="black"/>
<path d="M60 5.875V42.2387C62.0475 38.0325 66.25 28.5187 66.25 21.25C66.25 14.9312 62.4837 9.0625 60 5.875Z" fill="url(#paint0_linear)"/>
<path d="M57.5 42.24V5.88123C55.015 9.07373 51.25 14.9475 51.25 21.25C51.25 28.5262 55.4513 38.035 57.5 42.24Z" fill="url(#paint1_linear)"/>
<path d="M62.05 43.75H63.1163L73.0275 30.235C75.135 27.36 76.25 23.9575 76.25 20.3925C76.25 11.9 69.8525 4.88626 61.625 3.88501C64.3112 7.21501 68.75 13.8338 68.75 21.25C68.75 29.3663 64.1075 39.61 62.05 43.75Z" fill="url(#paint2_linear)"/>
<path d="M31.25 51.25H13.75V57.5C13.75 58.19 14.31 58.75 15 58.75H67.5C68.19 58.75 68.75 58.19 68.75 57.5V45.2275L64.6162 56.25H52.8825L48.195 43.75H51.2825L42.455 31.7125C40.2013 28.6388 38.9487 25.0363 38.7825 21.25H15C14.31 21.25 13.75 21.8112 13.75 22.5V28.85C14.16 28.7912 14.575 28.75 15 28.75C17.4675 28.75 19.82 29.8075 21.4687 31.6187C22.215 31.3737 22.9788 31.25 23.75 31.25C27.0162 31.25 29.795 33.3525 30.8212 36.2725C30.9637 36.265 31.1063 36.25 31.25 36.25C35.3862 36.25 38.75 39.6138 38.75 43.75C38.75 47.8862 35.3862 51.25 31.25 51.25ZM43.75 46.25C46.5075 46.25 48.75 48.4925 48.75 51.25C48.75 54.0075 46.5075 56.25 43.75 56.25H25V53.75H43.75C45.1287 53.75 46.25 52.6287 46.25 51.25C46.25 49.8713 45.1287 48.75 43.75 48.75C42.3713 48.75 41.25 49.8713 41.25 51.25H38.75C38.75 48.4925 40.9925 46.25 43.75 46.25Z" fill="#89898B"/>
<path d="M62.8837 53.75L65.6963 46.25H64.3838H53.1162H51.8037L54.6162 53.75H62.8837Z" fill="#89898B"/>
<path d="M11.25 22.5C11.25 20.4325 12.9325 18.75 15 18.75H38.8337C38.9062 17.9 39.0338 17.065 39.215 16.25H15C11.5538 16.25 8.75 19.0538 8.75 22.5V31.3888C9.4675 30.655 10.3138 30.0538 11.25 29.6075V22.5Z" fill="#89898B"/>
<path d="M54.3837 43.75H55.45C53.3925 39.61 48.75 29.3663 48.75 21.25C48.75 13.8338 53.1888 7.21501 55.875 3.88501C47.6475 4.88626 41.25 11.9 41.25 20.3925C41.25 23.9575 42.365 27.36 44.4725 30.235L54.3837 43.75Z" fill="url(#paint3_linear)"/>
<path d="M32.0225 66.25L29.5225 71.25H52.9775L50.4775 66.25H32.0225Z" fill="#7D7D7E"/>
<path d="M71.25 57.5C71.25 59.5675 69.5675 61.25 67.5 61.25H15C12.9325 61.25 11.25 59.5675 11.25 57.5V51.25H8.75V57.5C8.75 60.9463 11.5538 63.75 15 63.75H67.5C70.9463 63.75 73.75 60.9463 73.75 57.5V33.4775L71.25 36.8863V57.5Z" fill="#7D7D7E"/>
<path d="M31.25 48.75C34.0075 48.75 36.25 46.5075 36.25 43.75C36.25 40.9925 34.0075 38.75 31.25 38.75C31.25 41.1313 30.1562 43.3187 28.25 44.7512L26.7488 42.7513C28.02 41.7975 28.75 40.3387 28.75 38.75C28.75 35.9925 26.5075 33.75 23.75 33.75C23.0312 33.75 22.3125 33.9175 21.6162 34.2488L20.675 34.695L20.065 33.85C18.89 32.2225 16.9975 31.25 15 31.25C11.98 31.25 9.45375 33.4037 8.87625 36.2562C12.9537 36.325 16.25 39.6562 16.25 43.75H13.75C13.75 40.9925 11.5075 38.75 8.75 38.75C5.9925 38.75 3.75 40.9925 3.75 43.75C3.75 46.5075 5.9925 48.75 8.75 48.75H31.25Z" fill="url(#paint4_linear)"/>
<path d="M57.5 73.75H25C23.37 73.75 21.98 74.795 21.4638 76.25H61.0363C60.52 74.795 59.13 73.75 57.5 73.75Z" fill="#7D7D7E"/>
<path d="M14.66 70.818V72.402H12.662V74.58H10.88V72.402H8.882V70.818H10.88V68.64H12.662V70.818H14.66Z" fill="#89898B"/>
<path d="M72.356 66.404V67.076H70.868V68.696H70.112V67.076H68.624V66.404H70.112V64.784H70.868V66.404H72.356Z" fill="#89898B"/>
<path d="M31.392 11.308V12.172H29.976V13.708H29.016V12.172H27.6V11.308H29.016V9.772H29.976V11.308H31.392Z" fill="#B1A8A8"/>
<defs>
<linearGradient id="paint0_linear" x1="66" y1="6" x2="53" y2="42" gradientUnits="userSpaceOnUse">
<stop stop-color="#B6ACAC"/>
<stop offset="1" stop-color="#8E8A8A"/>
</linearGradient>
<linearGradient id="paint1_linear" x1="60" y1="4.5" x2="47.5" y2="40.5" gradientUnits="userSpaceOnUse">
<stop stop-color="#B6ACAC"/>
<stop offset="1" stop-color="#8E8A8A"/>
</linearGradient>
<linearGradient id="paint2_linear" x1="76" y1="4" x2="60" y2="44" gradientUnits="userSpaceOnUse">
<stop stop-color="#B6ACAC"/>
<stop offset="1" stop-color="#8E8A8A"/>
</linearGradient>
<linearGradient id="paint3_linear" x1="54" y1="1.5" x2="41" y2="42" gradientUnits="userSpaceOnUse">
<stop stop-color="#B6ACAC"/>
<stop offset="1" stop-color="#8E8A8A"/>
</linearGradient>
<linearGradient id="paint4_linear" x1="28.5" y1="31" x2="14.5" y2="51" gradientUnits="userSpaceOnUse">
<stop stop-color="#B1A8A8"/>
<stop offset="1" stop-color="#89898B"/>
</linearGradient>
</defs>
</svg>
